<?xml version="1.0" encoding="UTF-8"?>
<svg id="Layer_2" data-name="Layer 2" xmlns="http://www.w3.org/2000/svg" xmlns:xlink="http://www.w3.org/1999/xlink" viewBox="0 0 300.71 156.23">
  <defs>
    <style>
      .cls-1 { fill: #0095da; }
      .cls-2 { fill: url(#linear-gradient-2); }
      .cls-2, .cls-3, .cls-4, .cls-5 { fill-rule: evenodd; }
      .cls-3 { fill: url(#Blue-2); }
      .cls-6 { font-family: Arial-Black, 'Arial Black'; font-size: 59.05px; font-weight: 800; }
      .cls-7 { letter-spacing: -.02em; }
      .cls-7, .cls-8 { fill: #fff; }
      .cls-4 { fill: url(#linear-gradient); }
      .cls-5 { fill: url(#Blue); }
    </style>
    <linearGradient id="Blue" x1="2059.26" y1="-829.27" x2="2213.5" y2="-829.27" gradientTransform="translate(894.78 -873.01) rotate(150.6) scale(.52 .51)" gradientUnits="userSpaceOnUse">
      <stop offset="0" stop-color="#2bc4f3"/><stop offset=".5" stop-color="#00aeee"/><stop offset="1" stop-color="#0095da"/>
    </linearGradient>
    <linearGradient id="Blue-2" data-name="Blue" x1="2192.46" y1="-725.97" x2="2078.21" y2="-802.47" xlink:href="#Blue"/>
    <linearGradient id="linear-gradient" x1="2157.15" y1="-874.53" x2="1870.04" y2="-868.57" gradientTransform="translate(894.78 -873.01) rotate(150.6) scale(.52 .51)" gradientUnits="userSpaceOnUse">
      <stop offset="0" stop-color="#00d49d"/><stop offset=".5" stop-color="#00d09d"/><stop offset="1" stop-color="#0090a1"/>
    </linearGradient>
    <linearGradient id="linear-gradient-2" x1="1972.62" y1="-933.71" x2="2139.83" y2="-933.71" gradientTransform="translate(894.78 -873.01) rotate(150.6) scale(.52 .51)" gradientUnits="userSpaceOnUse">
      <stop offset="0" stop-color="#64c08a"/><stop offset=".5" stop-color="#00a550"/><stop offset="1" stop-color="#006837"/>
    </linearGradient>
  </defs>
  <g id="_6" data-name="6">
    <g>
      <g>
        <polygon class="cls-5" points="143.5 59.42 156.36 38.04 169.27 16.77 159.83 0 146.91 21.28 134.05 42.65 117.76 42.58 120.04 32.69 93.98 46.22 111.65 68.5 113.81 59.32 143.5 59.42"/>
        <polygon class="cls-3" points="70.7 18.62 149.44 17.16 159.83 0 104.69 1.01 70.7 18.62"/>
        <polygon class="cls-4" points="172.19 18.73 159.33 40.11 146.41 61.39 155.86 78.15 168.72 56.78 181.64 35.5 197.93 35.57 195.64 45.46 221.81 31.88 204.04 9.65 201.87 18.84 172.19 18.73"/>
        <polygon class="cls-2" points="244.99 59.53 166.25 61 155.86 78.15 210.94 77.04 244.99 59.53"/>
      </g>
      <text class="cls-6" transform="translate(0 138.12)"><tspan class="cls-1" x="0" y="0">IN</tspan><tspan class="cls-8" x="72.16" y="0">TR</tspan><tspan class="cls-7" x="160.73" y="0">A</tspan><tspan class="cls-8" x="205.6" y="0">CK</tspan></text>
    </g>
  </g>
</svg>
