<?xml version="1.0" encoding="UTF-8"?>
<svg id="Layer_2" data-name="Layer 2" xmlns="http://www.w3.org/2000/svg" xmlns:xlink="http://www.w3.org/1999/xlink" viewBox="0 0 300.71 156.23">
  <defs>
    <style>
      .cls-1 { fill: #0095da; }
      .cls-2 { fill: url(#linear-gradient-2); }
      .cls-2, .cls-3, .cls-4, .cls-5 { fill-rule: evenodd; }
      .cls-3 { fill: url(#Blue-2); }
      .cls-6 { font-family: Arial-Black, 'Arial Black'; font-size: 59.05px; font-weight: 800; }
      .cls-7, .cls-8 { fill: #066789; }
      .cls-8 { letter-spacing: -.02em; }
      .cls-4 { fill: url(#linear-gradient); }
      .cls-5 { fill: url(#Blue); }
    </style>
    <linearGradient id="Blue" x1="2957.89" y1="-506.81" x2="3112.12" y2="-506.81" gradientTransform="translate(1385.62 -959.13) rotate(150.6) scale(.52 .51)" gradientUnits="userSpaceOnUse">
      <stop offset="0" stop-color="#2bc4f3"/><stop offset=".5" stop-color="#00aeee"/><stop offset="1" stop-color="#0095da"/>
    </linearGradient>
    <linearGradient id="Blue-2" data-name="Blue" x1="3091.09" y1="-403.52" x2="2976.84" y2="-480.02" xlink:href="#Blue"/>
    <linearGradient id="linear-gradient" x1="3055.78" y1="-552.08" x2="2768.67" y2="-546.12" gradientTransform="translate(1385.62 -959.13) rotate(150.6) scale(.52 .51)" gradientUnits="userSpaceOnUse">
      <stop offset="0" stop-color="#00d49d"/><stop offset=".5" stop-color="#00d09d"/><stop offset="1" stop-color="#0090a1"/>
    </linearGradient>
    <linearGradient id="linear-gradient-2" x1="2871.24" y1="-611.25" x2="3038.46" y2="-611.25" gradientTransform="translate(1385.62 -959.13) rotate(150.6) scale(.52 .51)" gradientUnits="userSpaceOnUse">
      <stop offset="0" stop-color="#64c08a"/><stop offset=".5" stop-color="#00a550"/><stop offset="1" stop-color="#006837"/>
    </linearGradient>
  </defs>
  <g id="_6" data-name="6">
    <g>
      <g>
        <polygon class="cls-5" points="147.5 59.42 160.36 38.04 173.27 16.77 163.83 0 150.91 21.28 138.05 42.65 121.76 42.58 124.04 32.69 97.98 46.22 115.65 68.5 117.81 59.32 147.5 59.42"/>
        <polygon class="cls-3" points="74.7 18.62 153.44 17.16 163.83 0 108.69 1.01 74.7 18.62"/>
        <polygon class="cls-4" points="176.19 18.73 163.33 40.11 150.41 61.39 159.86 78.15 172.72 56.78 185.64 35.5 201.93 35.57 199.64 45.46 225.81 31.88 208.04 9.65 205.87 18.84 176.19 18.73"/>
        <polygon class="cls-2" points="248.99 59.53 170.25 61 159.86 78.15 214.94 77.04 248.99 59.53"/>
      </g>
      <text class="cls-6" transform="translate(0 138.12)"><tspan class="cls-1" x="0" y="0">IN</tspan><tspan class="cls-7" x="72.16" y="0">TR</tspan><tspan class="cls-8" x="160.73" y="0">A</tspan><tspan class="cls-7" x="205.6" y="0">CK</tspan></text>
    </g>
  </g>
</svg>
